<svg xmlns="http://www.w3.org/2000/svg" width="232.001" height="119.167" viewBox="0 0 232.001 119.167">
  <defs>
    <style>
      .cls-1 {
        fill: #e4e4e4;
        stroke: #8f8e8e;
      }

      .cls-1, .cls-2, .cls-3 {
        stroke-width: 2px;
      }

      .cls-2 {
        fill: #f5f5f5;
        stroke: #aeacac;
      }

      .cls-3 {
        fill: #dcdcdc;
        stroke: #959090;
      }

      .cls-4, .cls-5, .cls-7 {
        fill: none;
      }

      .cls-4, .cls-5 {
        stroke: #707070;
      }

      .cls-4 {
        stroke-dasharray: 4 4;
      }

      .cls-5 {
        stroke-dasharray: 4;
      }

      .cls-6 {
        stroke: none;
      }
    </style>
  </defs>
  <g id="箱" transform="translate(-857 -421.333)">
    <g id="组_2444" data-name="组 2444" transform="translate(-629 40)">
      <path id="路径_2993" data-name="路径 2993" class="cls-1" d="M14781.335-6050.667l-58.667,37.333h186.667l38.666-37.333Z" transform="translate(-13233 6433)"/>
      <g id="矩形_1210" data-name="矩形 1210" class="cls-2" transform="translate(1486 422)">
        <rect class="cls-6" width="190" height="78"/>
        <rect class="cls-7" x="1" y="1" width="188" height="76"/>
      </g>
      <path id="路径_2994" data-name="路径 2994" class="cls-3" d="M14948-6050.667V-5984l-39.557,45.283v-74.148Z" transform="translate(-13231 6435)"/>
    </g>
    <g id="组_2445" data-name="组 2445">
      <line id="直线_109" data-name="直线 109" class="cls-4" y2="79" transform="translate(954.5 461.5)"/>
      <line id="直线_110" data-name="直线 110" class="cls-4" x2="188" transform="translate(857.5 481.5)"/>
      <line id="直线_111" data-name="直线 111" class="cls-4" x2="188" transform="translate(857.5 500.5)"/>
      <line id="直线_112" data-name="直线 112" class="cls-4" x2="188" transform="translate(857.5 520.5)"/>
      <path id="路径_2997" data-name="路径 2997" class="cls-5" d="M0,38,38.97-1.809" transform="translate(1049.5 442.5)"/>
      <path id="路径_2998" data-name="路径 2998" class="cls-5" d="M0,38,38.611-1.572" transform="translate(1049.5 460.5)"/>
      <path id="路径_2999" data-name="路径 2999" class="cls-5" d="M0,38,37.893-3.335" transform="translate(1049.5 479.5)"/>
      <line id="直线_113" data-name="直线 113" class="cls-4" y1="36" x2="49" transform="translate(954.5 422.5)"/>
    </g>
  </g>
</svg>
