<svg xmlns="http://www.w3.org/2000/svg" width="43.905" height="44.494" viewBox="0 0 43.905 44.494">
  <defs>
    <style>
      .cls-1 {
        fill: #00abc4;
      }
    </style>
  </defs>
  <g id="组_3" data-name="组 3" transform="translate(0)">
    <path id="路径_2986" data-name="路径 2986" class="cls-1" d="M1.322,0h6.3A1.322,1.322,0,0,1,8.945,1.322v28.56A1.322,1.322,0,0,1,7.624,31.2h-6.3A1.322,1.322,0,0,1,0,29.882V1.322A1.322,1.322,0,0,1,1.322,0Z" transform="translate(22.064 0) rotate(45)"/>
    <path id="路径_2985" data-name="路径 2985" class="cls-1" d="M1.322,0h6.3A1.322,1.322,0,0,1,8.945,1.322V15.944a1.322,1.322,0,0,1-1.322,1.322h-6.3A1.322,1.322,0,0,1,0,15.944V1.322A1.322,1.322,0,0,1,1.322,0Z" transform="translate(29.784 8.09) rotate(45)"/>
    <path id="路径_2984" data-name="路径 2984" class="cls-1" d="M1.322,0h6.3A1.322,1.322,0,0,1,8.945,1.322v28.56A1.322,1.322,0,0,1,7.624,31.2h-6.3A1.322,1.322,0,0,1,0,29.882V1.322A1.322,1.322,0,0,1,1.322,0Z" transform="translate(37.579 16.104) rotate(45)"/>
  </g>
</svg>
