<svg xmlns="http://www.w3.org/2000/svg" width="24" height="24" viewBox="0 0 24 24">
  <defs>
    <style>
      .cls-1 {
        opacity: 0.54;
      }

      .cls-2 {
        fill: none;
      }
    </style>
  </defs>
  <g id="outline-local_printshop-24px" class="cls-1">
    <path id="路径_2484" data-name="路径 2484" class="cls-2" d="M0,0H24V24H0Z"/>
    <path id="路径_2485" data-name="路径 2485" d="M19,8H18V3H6V8H5a3,3,0,0,0-3,3v6H6v4H18V17h4V11A3,3,0,0,0,19,8ZM8,5h8V8H8Zm8,14H8V15h8Zm2-4V13H6v2H4V11a1,1,0,0,1,1-1H19a1,1,0,0,1,1,1v4Z"/>
    <circle id="椭圆_19" data-name="椭圆 19" cx="1" cy="1" r="1" transform="translate(17 10.5)"/>
  </g>
</svg>
