<svg xmlns="http://www.w3.org/2000/svg" width="30.381" height="28.02" viewBox="0 0 30.381 28.02">
  <defs>
    <style>
      .cls-1 {
        fill: #fff;
      }
    </style>
  </defs>
  <path id="减去_12" data-name="减去 12" class="cls-1" d="M28.552,28.019a3.655,3.655,0,0,1-.4-.02H2.537c-.024,0-.149.01-.33.01a3.275,3.275,0,0,1-1.672-.356,1.706,1.706,0,0,1-.529-1.44V1.639A1.99,1.99,0,0,1,.679.372,3.133,3.133,0,0,1,2.261,0h25.8a3.306,3.306,0,0,1,1.705.416,1.967,1.967,0,0,1,.609,1.371V26.034a2.34,2.34,0,0,1-.48,1.619A2.122,2.122,0,0,1,28.552,28.019ZM13.34,18.468v3.951H25.933V18.468Zm-8.889,0v3.951h5.926V18.468Zm8.889-6.553v4.016H25.933V11.915Zm-8.889,0v4.016h5.926V11.915ZM13.34,5.5V9.533H25.933V5.5Zm-8.889,0V9.533h5.926V5.5Z" transform="translate(0 0)"/>
</svg>
