<svg xmlns="http://www.w3.org/2000/svg" width="24" height="24" viewBox="0 0 24 24">
  <defs>
    <style>
      .cls-1 {
        fill: none;
        opacity: 0;
      }

      .cls-2, .cls-3 {
        stroke: none;
      }

      .cls-3 {
        fill: #707070;
      }
    </style>
  </defs>
  <g id="alarm_setting_list" transform="translate(-44 -196)">
    <g id="路径_2990" data-name="路径 2990" class="cls-1" transform="translate(44 196)">
      <path class="cls-2" d="M0,0H24V24H0Z"/>
      <path class="cls-3" d="M 1 1 L 1 23 L 23 23 L 23 1 L 1 1 M 0 0 L 24 0 L 24 24 L 0 24 L 0 0 Z"/>
    </g>
    <path id="alarm-light-outline" d="M6,6.9,3.87,4.78,5.28,3.37,7.4,5.5,6,6.9M13,1V4H11V1h2m7.13,3.78L18,6.9,16.6,5.5l2.12-2.13,1.41,1.41M4.5,10.5v2h-3v-2h3m15,0h3v2h-3v-2M6,20H18a2.006,2.006,0,0,1,2,2H4a2.006,2.006,0,0,1,2-2M12,5a6,6,0,0,1,6,6v8H6V11a6,6,0,0,1,6-6m0,2a4,4,0,0,0-4,4v6h8V11A4,4,0,0,0,12,7Z" transform="translate(43.5 196)"/>
  </g>
</svg>
