<svg xmlns="http://www.w3.org/2000/svg" width="24" height="24" viewBox="0 0 24 24">
  <defs>
    <style>
      .cls-1 {
        fill: none;
        opacity: 0;
      }

      .cls-2, .cls-3 {
        stroke: none;
      }

      .cls-3 {
        fill: #707070;
      }
    </style>
  </defs>
  <g id="audit_sign" transform="translate(-44 -196)">
    <g id="路径_2990" data-name="路径 2990" class="cls-1" transform="translate(44 196)">
      <path class="cls-2" d="M0,0H24V24H0Z"/>
      <path class="cls-3" d="M 1 1 L 1 23 L 23 23 L 23 1 L 1 1 M 0 0 L 24 0 L 24 24 L 0 24 L 0 0 Z"/>
    </g>
    <path id="square-edit-outline" d="M5,3A1.993,1.993,0,0,0,3,5V19a2.006,2.006,0,0,0,2,2H19a2.006,2.006,0,0,0,2-2V12H19v7H5V5h7V3H5M17.78,4a.691.691,0,0,0-.48.2L16.08,5.41l2.5,2.5L19.8,6.7a.676.676,0,0,0,0-.95L18.25,4.2a.668.668,0,0,0-.47-.2M15.37,6.12,8,13.5V16h2.5l7.37-7.38Z" transform="translate(44 196)"/>
  </g>
</svg>
