<svg id="authority" xmlns="http://www.w3.org/2000/svg" width="24" height="24" viewBox="0 0 24 24">
  <defs>
    <style>
      .cls-1, .cls-2 {
        fill: none;
      }

      .cls-2 {
        opacity: 0.87;
      }
    </style>
  </defs>
  <g id="组_2316" data-name="组 2316">
    <path id="路径_2888" data-name="路径 2888" class="cls-1" d="M0,0H24V24H0Z"/>
    <path id="路径_2889" data-name="路径 2889" class="cls-2" d="M0,0H24V24H0Z"/>
  </g>
  <path id="路径_2890" data-name="路径 2890" d="M18,7.667H17v-1.9A4.887,4.887,0,0,0,12,1,4.887,4.887,0,0,0,7,5.762v1.9H6a1.96,1.96,0,0,0-2,1.9V19.1A1.96,1.96,0,0,0,6,21H18a1.96,1.96,0,0,0,2-1.9V9.571A1.96,1.96,0,0,0,18,7.667Zm-9-1.9A2.927,2.927,0,0,1,12,2.9a2.927,2.927,0,0,1,3,2.857v1.9H9ZM18,19.1H6V9.571H18Zm-6-2.857a1.907,1.907,0,1,0-2-1.9A1.96,1.96,0,0,0,12,16.238Z" transform="translate(0 1)"/>
</svg>
