<svg id="common_file_pdf" xmlns="http://www.w3.org/2000/svg" width="24" height="24" viewBox="0 0 24 24">
  <defs>
    <style>
      .cls-1 {
        fill: none;
      }
    </style>
  </defs>
  <path id="路径_2655" data-name="路径 2655" class="cls-1" d="M0,0H24V24H0Z"/>
  <g id="组_2506" data-name="组 2506" transform="translate(2)">
    <path id="路径_2709" data-name="路径 2709" d="M-12814-22497h-12.009a2,2,0,0,1-1.994-2v-16a2,2,0,0,1,2-2h8l6,6v12h-2v-11h-5v-5h-7v16h14A2.118,2.118,0,0,1-12814-22497Z" transform="translate(12830 22519)"/>
    <path id="路径_3018" data-name="路径 3018" d="M1.092,0H2.868V-3.156H4.056c1.908,0,3.432-.912,3.432-2.94,0-2.1-1.512-2.784-3.48-2.784H1.092ZM2.868-4.56V-7.476H3.876c1.224,0,1.872.348,1.872,1.38S5.16-4.56,3.936-4.56Z" transform="translate(6 19)"/>
  </g>
</svg>
