<svg xmlns="http://www.w3.org/2000/svg" width="24" height="24" viewBox="0 0 24 24">
  <defs>
    <style>
      .cls-1 {
        fill: none;
      }
    </style>
  </defs>
  <g id="customer" transform="translate(-90 -1232)">
    <path id="路径_2565" data-name="路径 2565" class="cls-1" d="M0,0H24V24H0Z" transform="translate(90 1232)"/>
    <path id="路径_2698" data-name="路径 2698" d="M-15439-22226v-4c0-2.656,5.331-4,8-4s8,1.34,8,4v4Zm14.1-1.9v-2.1c0-.641-3.132-2.1-6.1-2.1s-6.1,1.457-6.1,2.1v2.1h4.471l.692-4.064h1.385l.806,4.064Zm-10.1-11.1a4,4,0,0,1,4-4,4,4,0,0,1,4,4,4,4,0,0,1-4,4A4,4,0,0,1-15435-22239Zm1.9,0a2.1,2.1,0,0,0,2.1,2.1,2.1,2.1,0,0,0,2.1-2.1,2.1,2.1,0,0,0-2.1-2.1A2.1,2.1,0,0,0-15433.1-22239Z" transform="translate(15533 23479)"/>
  </g>
</svg>
