<svg id="department" xmlns="http://www.w3.org/2000/svg" width="24" height="24" viewBox="0 0 24 24">
  <defs>
    <style>
      .cls-1 {
        fill: none;
      }
    </style>
  </defs>
  <path id="路径_2583" data-name="路径 2583" class="cls-1" d="M0,0H24V24H0Z"/>
  <path id="路径_2584" data-name="路径 2584" d="M9,13.75c-3.3-.041-7,2.17-7,4.5V20H16V18.25C16,15.92,12.3,13.791,9,13.75ZM4.34,18c.84-.58,1.586-2.3,4.66-2.25s3.82,1.67,4.66,2.25ZM9,12A3.5,3.5,0,1,0,5.5,8.5,3.5,3.5,0,0,0,9,12ZM9,7A1.5,1.5,0,1,1,7.5,8.5,1.5,1.5,0,0,1,9,7Zm7.04,6.81A4.193,4.193,0,0,1,18,17.25V20h4V17.25C22,15.23,18.5,14.08,16.04,13.81ZM15,12a3.5,3.5,0,0,0,0-7,3.446,3.446,0,0,0-1.5.35,5.461,5.461,0,0,1,0,6.3A3.446,3.446,0,0,0,15,12Z"/>
</svg>
