<svg id="employee" xmlns="http://www.w3.org/2000/svg" width="24" height="24" viewBox="0 0 24 24">
  <defs>
    <style>
      .cls-1 {
        fill: none;
      }
    </style>
  </defs>
  <path id="路径_2733" data-name="路径 2733" d="M12,5.9A2.1,2.1,0,1,1,9.9,8,2.1,2.1,0,0,1,12,5.9m0,9c2.97,0,6.1,1.46,6.1,2.1v2.1H5.9V17c0-.64,3.13-2.1,6.1-2.1M12,4a4,4,0,1,0,4,4A4,4,0,0,0,12,4Zm0,9c-2.67,0-8,1.34-8,4v4H20V17C20,14.34,14.67,13,12,13Z" transform="translate(0 -1)"/>
  <path id="路径_2734" data-name="路径 2734" class="cls-1" d="M0,0H24V24H0Z"/>
</svg>
