<svg id="equipment_management" xmlns="http://www.w3.org/2000/svg" width="24" height="24" viewBox="0 0 24 24">
  <defs>
    <style>
      .cls-1 {
        fill: none;
      }
    </style>
  </defs>
  <path id="路径_2891" data-name="路径 2891" class="cls-1" d="M0,0H24V24H0Z"/>
  <path id="路径_2892" data-name="路径 2892" d="M16.333,9.667H9.667v6.667h6.667Zm-2.222,4.444H11.889V11.889h2.222ZM23,11.889V9.667H20.778V7.444a2.229,2.229,0,0,0-2.222-2.222H16.333V3H14.111V5.222H11.889V3H9.667V5.222H7.444A2.229,2.229,0,0,0,5.222,7.444V9.667H3v2.222H5.222v2.222H3v2.222H5.222v2.222a2.229,2.229,0,0,0,2.222,2.222H9.667V23h2.222V20.778h2.222V23h2.222V20.778h2.222a2.229,2.229,0,0,0,2.222-2.222V16.333H23V14.111H20.778V11.889Zm-4.444,6.667H7.444V7.444H18.556Z" transform="translate(-1 -1)"/>
</svg>
