<svg id="esop_file" xmlns="http://www.w3.org/2000/svg" width="24" height="24" viewBox="0 0 24 24">
  <defs>
    <style>
      .cls-1 {
        fill: none;
      }
    </style>
  </defs>
  <path id="路径_2655" data-name="路径 2655" class="cls-1" d="M0,0H24V24H0Z"/>
  <path id="路径_2708" data-name="路径 2708" d="M-15527.01-24572a2,2,0,0,1-1.987-2v-16a2,2,0,0,1,2-2h8l6,6v12a2.008,2.008,0,0,1-2,2Zm.012-2h12v-11h-5v-5h-7Zm2.673-6.838c0-2.506,1.7-4.061,3.512-4.061,2.043,0,3.135,1.469,3.135,3.652a4.658,4.658,0,0,1-.067.814h-5a2.322,2.322,0,0,0,2.376,2.352,3.266,3.266,0,0,0,1.839-.574l.556,1.02a4.618,4.618,0,0,1-2.6.814A3.692,3.692,0,0,1-15524.325-24580.836Zm1.567-.7h3.691c0-1.334-.6-2.105-1.723-2.105A2.088,2.088,0,0,0-15522.758-24581.533Z" transform="translate(15533 24594)"/>
</svg>
