<svg xmlns="http://www.w3.org/2000/svg" width="24" height="24" viewBox="0 0 24 24">
  <defs>
    <style>
      .cls-1 {
        fill: none;
      }
    </style>
  </defs>
  <g id="esop_management" transform="translate(-59 -2315)">
    <path id="路径_2496" data-name="路径 2496" class="cls-1" d="M0,0H24V24H0Z" transform="translate(59 2315)"/>
    <path id="路径_2707" data-name="路径 2707" d="M-15437-22227a2.009,2.009,0,0,1-2-2l.012-12a2,2,0,0,1,1.987-2h6l2,2h8a2,2,0,0,1,2,2v10a2.009,2.009,0,0,1-2,2Zm0-2h16v-10h-8.831l-2-2H-15437Zm4.672-4.834c0-2.506,1.709-4.059,3.518-4.059,2.043,0,3.137,1.469,3.137,3.65a3.963,3.963,0,0,1-.072.816h-5a2.322,2.322,0,0,0,2.378,2.35,3.251,3.251,0,0,0,1.837-.576l.558,1.021a4.645,4.645,0,0,1-2.606.816A3.7,3.7,0,0,1-15432.33-22233.836Zm1.569-.7h3.7c0-1.33-.6-2.105-1.72-2.105A2.092,2.092,0,0,0-15430.761-22234.533Z" transform="translate(15500 24562)"/>
  </g>
</svg>
