<svg xmlns="http://www.w3.org/2000/svg" width="24" height="24" viewBox="0 0 24 24">
  <defs>
    <style>
      .cls-1 {
        fill: none;
      }
    </style>
  </defs>
  <g id="factory_management" transform="translate(-51 -89)">
    <path id="路径_2687" data-name="路径 2687" d="M-15447-22226v-2h19v2Zm14.5-3v-8h2v8Zm-6.13,0a.253.253,0,0,1-.251-.207l-.189-1.322a3.556,3.556,0,0,1-.849-.486l-1.239.5a.255.255,0,0,1-.312-.113l-1-1.725a.262.262,0,0,1,.062-.322l1.061-.832a3.415,3.415,0,0,1-.034-.486,3.45,3.45,0,0,1,.034-.49l-1.061-.832a.244.244,0,0,1-.1-.18v6.5h-2v-8h2v1.479a.266.266,0,0,1,.034-.115l1-1.73a.266.266,0,0,1,.313-.111l1.239.5a3.922,3.922,0,0,1,.849-.492l.076-.529H-15447l9.5-5,9.5,5h-8.276l.076.529a3.519,3.519,0,0,1,.854.492l1.239-.5a.249.249,0,0,1,.307.111l1,1.73a.255.255,0,0,1-.056.318l-1.061.832a2.755,2.755,0,0,1,.039.49,4.54,4.54,0,0,1-.039.486l1.066.832a.257.257,0,0,1,.062.322l-1,1.725a.262.262,0,0,1-.312.113l-1.244-.5a3.852,3.852,0,0,1-.844.486l-.189,1.322a.257.257,0,0,1-.251.207Zm-.5-5a1.5,1.5,0,0,0,1.5,1.5,1.5,1.5,0,0,0,1.5-1.5,1.5,1.5,0,0,0-1.5-1.5A1.5,1.5,0,0,0-15439.123-22234Zm6.832-4-5.208-2.742-5.214,2.742h3.722l.113-.787a.262.262,0,0,1,.251-.213h2a.238.238,0,0,1,.24.213l.113.787Z" transform="translate(15501 22335)"/>
    <path id="路径_2486" data-name="路径 2486" class="cls-1" d="M0,0H24V24H0Z" transform="translate(51 89)"/>
  </g>
</svg>
