<svg xmlns="http://www.w3.org/2000/svg" width="24" height="24" viewBox="0 0 24 24">
  <defs>
    <style>
      .cls-1 {
        fill: none;
      }
    </style>
  </defs>
  <g id="file_management" transform="translate(-18 -2279)">
    <path id="路径_2496" data-name="路径 2496" class="cls-1" d="M0,0H24V24H0Z" transform="translate(18 2279)"/>
    <path id="路径_2706" data-name="路径 2706" d="M-15437-22227a2.009,2.009,0,0,1-2-2l.012-12a2,2,0,0,1,1.987-2h6l2,2h8a2,2,0,0,1,2,2v10a2.009,2.009,0,0,1-2,2Zm16-2v-10h-8.831l-2-2H-15437v12h6.994a.245.245,0,0,1-.251-.207l-.189-1.322a3.358,3.358,0,0,1-.849-.486l-1.245.5a.25.25,0,0,1-.307-.113l-1-1.725a.26.26,0,0,1,.056-.322l1.061-.832a4.587,4.587,0,0,1-.028-.486,4.631,4.631,0,0,1,.028-.49l-1.061-.832a.248.248,0,0,1-.056-.318l1-1.73a.258.258,0,0,1,.307-.111l1.245.5a3.788,3.788,0,0,1,.849-.492l.189-1.316a.253.253,0,0,1,.251-.213h2a.241.241,0,0,1,.239.213l.19,1.316a3.483,3.483,0,0,1,.849.492l1.239-.5a.257.257,0,0,1,.313.111l1,1.73a.255.255,0,0,1-.062.318l-1.061.832a2.36,2.36,0,0,1,.045.49,3.4,3.4,0,0,1-.045.486l1.072.832a.269.269,0,0,1,.061.322l-1,1.725a.264.264,0,0,1-.312.113l-1.25-.5a3.951,3.951,0,0,1-.838.486l-.189,1.322a.262.262,0,0,1-.251.207Zm-9.512-5a1.5,1.5,0,0,0,1.5,1.5,1.5,1.5,0,0,0,1.5-1.5,1.5,1.5,0,0,0-1.5-1.5A1.5,1.5,0,0,0-15430.51-22234Z" transform="translate(15459 24526)"/>
  </g>
</svg>
