<svg id="label_management" xmlns="http://www.w3.org/2000/svg" width="24" height="24" viewBox="0 0 24 24">
  <defs>
    <style>
      .cls-1 {
        fill: none;
      }
    </style>
  </defs>
  <path id="路径_2791" data-name="路径 2791" class="cls-1" d="M0,0H24V24H0Z"/>
  <path id="tag-outline" d="M5.325,6.75A1.425,1.425,0,1,0,3.9,5.325,1.423,1.423,0,0,0,5.325,6.75M20.44,11.1A1.9,1.9,0,0,1,21,12.45a1.858,1.858,0,0,1-.56,1.34l-6.65,6.65a1.9,1.9,0,0,1-1.34.56,1.936,1.936,0,0,1-1.349-.56l-8.54-8.55A1.858,1.858,0,0,1,2,10.55V3.9A1.893,1.893,0,0,1,3.9,2h6.65a1.888,1.888,0,0,1,1.339.551l8.55,8.55m-7.99,8,6.65-6.65L11.025,4.375l-6.65,6.65Z" transform="translate(1 1)"/>
</svg>
