<svg id="owner_change" xmlns="http://www.w3.org/2000/svg" width="24" height="24" viewBox="0 0 24 24">
  <defs>
    <style>
      .cls-1 {
        fill: none;
      }
    </style>
  </defs>
  <path id="路径_2867" data-name="路径 2867" class="cls-1" d="M0,0H24V24H0Z"/>
  <path id="路径_2868" data-name="路径 2868" d="M11,12A4,4,0,1,0,7,8,4,4,0,0,0,11,12Zm0-6A2,2,0,1,1,9,8,2.006,2.006,0,0,1,11,6ZM5,18c.2-.63,2.57-1.68,4.96-1.94l2.04-2A9.341,9.341,0,0,0,11,14c-2.67,0-8,1.34-8,4v2h9l-2-2Zm15.6-5.5-5.13,5.17L13.4,15.59,12,17l3.47,3.5L22,13.91Z"/>
</svg>
