<svg xmlns="http://www.w3.org/2000/svg" width="24" height="24" viewBox="0 0 24 24">
  <defs>
    <style>
      .cls-1 {
        fill: none;
      }
    </style>
  </defs>
  <g id="packing" transform="translate(-58 -1891)">
    <path id="路径_2651" data-name="路径 2651" class="cls-1" d="M0,0H24V24H0Z" transform="translate(58 1891)"/>
    <path id="路径_2652" data-name="路径 2652" d="M20.54,5.23,19.15,3.55A1.451,1.451,0,0,0,18,3H6a1.486,1.486,0,0,0-1.16.55L3.46,5.23A1.958,1.958,0,0,0,3,6.5V19a2.006,2.006,0,0,0,2,2H19a2.006,2.006,0,0,0,2-2V6.5A1.958,1.958,0,0,0,20.54,5.23ZM6.24,5H17.76l.83,1H5.42l.82-1ZM5,19V8H19V19Z" transform="translate(58 1891)"/>
  </g>
</svg>
