<svg xmlns="http://www.w3.org/2000/svg" width="24" height="24" viewBox="0 0 24 24">
  <defs>
    <style>
      .cls-1, .cls-3 {
        fill: none;
      }

      .cls-1 {
        stroke: #707070;
        opacity: 0;
      }

      .cls-2 {
        stroke: none;
      }
    </style>
  </defs>
  <g id="part_management" transform="translate(-59 -266)">
    <path id="路径_2688" data-name="路径 2688" d="M-15437-22225a2,2,0,0,1-2-2v-12.5a1.98,1.98,0,0,1,.458-1.268l1.385-1.68a1.477,1.477,0,0,1,1.161-.553h12a1.446,1.446,0,0,1,1.149.553l1.391,1.68a1.952,1.952,0,0,1,.463,1.268v12.5a2.008,2.008,0,0,1-2,2Zm14-2v-11h-14v11h5.989a.243.243,0,0,1-.245-.213l-.189-1.316a3.5,3.5,0,0,1-.854-.492l-1.239.5a.249.249,0,0,1-.307-.111l-1-1.725a.264.264,0,0,1,.056-.324l1.062-.826a4.533,4.533,0,0,1-.028-.492,4.44,4.44,0,0,1,.028-.49l-1.062-.832a.243.243,0,0,1-.056-.318l1-1.73a.256.256,0,0,1,.307-.111l1.239.5a4.222,4.222,0,0,1,.854-.492l.189-1.316a.251.251,0,0,1,.245-.213h2a.241.241,0,0,1,.24.213l.19,1.316a3.6,3.6,0,0,1,.849.492l1.239-.5a.257.257,0,0,1,.313.111l1,1.73a.256.256,0,0,1-.062.318l-1.061.832a2.386,2.386,0,0,1,.039.49,3.56,3.56,0,0,1-.039.492l1.071.826a.272.272,0,0,1,.062.324l-1,1.725a.256.256,0,0,1-.307.111l-1.25-.5a3.873,3.873,0,0,1-.844.492l-.184,1.316a.262.262,0,0,1-.252.213Zm-8.507-5a1.5,1.5,0,0,0,1.5,1.5,1.5,1.5,0,0,0,1.5-1.5,1.5,1.5,0,0,0-1.5-1.5A1.5,1.5,0,0,0-15431.509-22232Zm-5.069-8h13.169l-.832-1h-11.516Z" transform="translate(15501 22512)"/>
    <g id="矩形_1173" data-name="矩形 1173" class="cls-1" transform="translate(59 266)">
      <rect class="cls-2" width="24" height="24"/>
      <rect class="cls-3" x="0.5" y="0.5" width="23" height="23"/>
    </g>
  </g>
</svg>
