<svg id="production_management" xmlns="http://www.w3.org/2000/svg" width="24" height="24" viewBox="0 0 24 24">
  <defs>
    <style>
      .cls-1 {
        fill: none;
      }
    </style>
  </defs>
  <path id="路径_2775" data-name="路径 2775" class="cls-1" d="M0,0H24V24H0Z"/>
  <path id="路径_2776" data-name="路径 2776" d="M19.738,16.6,11.865,8.727A5.633,5.633,0,0,0,3.306,2.094l3.33,3.338L5.4,6.655,2.084,3.334a5.628,5.628,0,0,0,6.538,8.584l7.9,7.9a.864.864,0,0,0,1.223,0l1.994-1.994a.848.848,0,0,0,0-1.223Zm-2.6,1.387-8.2-8.2A3.791,3.791,0,0,1,7.2,10.5,3.89,3.89,0,0,1,2.734,6.429L5.413,9.109,9.09,5.432,6.411,2.753a3.89,3.89,0,0,1,4.058,4.57,3.771,3.771,0,0,1-.763,1.7L17.9,17.216Z" transform="translate(2 2)"/>
</svg>
