<svg id="qms" xmlns="http://www.w3.org/2000/svg" width="24" height="24" viewBox="0 0 24 24">
  <defs>
    <style>
      .cls-1 {
        fill: none;
      }
    </style>
  </defs>
  <path id="路径_2500" data-name="路径 2500" class="cls-1" d="M0,0H24V24H0Z"/>
  <path id="路径_2703" data-name="路径 2703" d="M-15449-24222.691h-4.69v-4.686l-3.31-3.314,3.31-3.311v-4.686h4.69l3.31-3.314,3.31,3.314h4.691v4.686l3.31,3.311-3.31,3.314v4.686h-4.691l-3.31,3.314Zm-2.688-10.477-2.482,2.477,2.482,2.48v3.523h3.517l2.481,2.477,2.477-2.477h3.522v-3.523l2.482-2.48-2.482-2.477v-3.523h-3.522l-2.477-2.477-2.481,2.477h-3.517Zm9.26,8.273-.895-1.143a5.034,5.034,0,0,1-2.458.6,4.993,4.993,0,0,1-3.76-1.564,5.17,5.17,0,0,1-1.5-3.723,5.219,5.219,0,0,1,.7-2.646,5.221,5.221,0,0,1,1.917-1.916,5.138,5.138,0,0,1,2.628-.713,5,5,0,0,1,3.675,1.547,5.132,5.132,0,0,1,1.533,3.766,5.1,5.1,0,0,1-1.326,3.527l1.752,2.264Zm-5.731-8.262a3.377,3.377,0,0,0-.955,2.471,3.23,3.23,0,0,0,1.2,2.641,3.311,3.311,0,0,0,2.13.754,3.093,3.093,0,0,0,1.289-.268l-1.8-2.312h2.282l.906,1.168a3.523,3.523,0,0,0,.608-2,3.343,3.343,0,0,0-.968-2.426,3.1,3.1,0,0,0-2.33-1A3.172,3.172,0,0,0-15448.159-24233.156Z" transform="translate(15457.69 24242.689)"/>
</svg>
