<svg xmlns="http://www.w3.org/2000/svg" width="24" height="24" viewBox="0 0 24 24">
  <defs>
    <style>
      .cls-1 {
        fill: none;
        opacity: 0;
      }

      .cls-2, .cls-3 {
        stroke: none;
      }

      .cls-3 {
        fill: #707070;
      }
    </style>
  </defs>
  <g id="report_query" transform="translate(-59 -2243)">
    <path id="路径_2705" data-name="路径 2705" d="M-15437-22223a2.867,2.867,0,0,1-.4-.029,1.967,1.967,0,0,1-1.011-.553,2.1,2.1,0,0,1-.43-.641,2.039,2.039,0,0,1-.162-.777v-14a1.912,1.912,0,0,1,.162-.77,2.084,2.084,0,0,1,.43-.643,2,2,0,0,1,1.011-.547,1.553,1.553,0,0,1,.4-.039h4.181a3.014,3.014,0,0,1,2.819-2,3.019,3.019,0,0,1,2.824,2h4.176a2.008,2.008,0,0,1,2,2v14a2.01,2.01,0,0,1-2,2Zm0-2h14v-14h-14Zm6.252-15.5a.756.756,0,0,0,.748.754.758.758,0,0,0,.754-.754.758.758,0,0,0-.754-.748A.756.756,0,0,0-15430.75-22240.5Zm2.629,11.8a4.4,4.4,0,0,1-2.389.7,4.491,4.491,0,0,1-4.488-4.5,4.493,4.493,0,0,1,4.5-4.5,4.494,4.494,0,0,1,4.5,4.5,4.467,4.467,0,0,1-.7,2.395l2.445,2.428-1.424,1.418Zm-4.879-3.8a2.5,2.5,0,0,0,2.5,2.5,2.5,2.5,0,0,0,2.5-2.5,2.5,2.5,0,0,0-2.5-2.5A2.5,2.5,0,0,0-15433-22232.5Z" transform="translate(15501 24487)"/>
    <g id="路径_2956" data-name="路径 2956" class="cls-1" transform="translate(59 2243)">
      <path class="cls-2" d="M0,0H24V24H0Z"/>
      <path class="cls-3" d="M 1 1 L 1 23 L 23 23 L 23 1 L 1 1 M 0 0 L 24 0 L 24 24 L 0 24 L 0 0 Z"/>
    </g>
  </g>
</svg>
