<svg xmlns="http://www.w3.org/2000/svg" width="24" height="24" viewBox="0 0 24 24">
  <defs>
    <style>
      .cls-1, .cls-3 {
        fill: none;
      }

      .cls-1 {
        stroke: #707070;
        opacity: 0;
      }

      .cls-2 {
        stroke: none;
      }
    </style>
  </defs>
  <g id="sample_plan" transform="translate(-89 -732)">
    <path id="路径_2691" data-name="路径 2691" d="M-15437-22223a2.006,2.006,0,0,1-2-2v-14a2,2,0,0,1,2-2h1v-2h2v2h8v-2h2v2a4.176,4.176,0,0,1,2.1.412,2.542,2.542,0,0,1,.9,1.586v14a2.01,2.01,0,0,1-2,2Zm14-2v-10h-14v10h10.58l-1.7-1.7a4.423,4.423,0,0,1-2.389.7,4.491,4.491,0,0,1-4.488-4.5,4.493,4.493,0,0,1,4.5-4.5,4.494,4.494,0,0,1,4.5,4.5,4.462,4.462,0,0,1-.7,2.389l2.445,2.43-.681.68Zm-10-5.5a2.5,2.5,0,0,0,2.5,2.5,2.5,2.5,0,0,0,2.5-2.5,2.5,2.5,0,0,0-2.5-2.5A2.5,2.5,0,0,0-15433-22230.5Zm-4-6.5h14v-2h-14Z" transform="translate(15531 22976)"/>
    <g id="矩形_1175" data-name="矩形 1175" class="cls-1" transform="translate(89 732)">
      <rect class="cls-2" width="24" height="24"/>
      <rect class="cls-3" x="0.5" y="0.5" width="23" height="23"/>
    </g>
  </g>
</svg>
