<svg id="samplingplan_detail" xmlns="http://www.w3.org/2000/svg" width="24" height="24" viewBox="0 0 24 24">
  <defs>
    <style>
      .cls-1 {
        fill: none;
      }
    </style>
  </defs>
  <path id="路径_2605" data-name="路径 2605" class="cls-1" d="M0,0H24V24H0Z"/>
  <path id="路径_2606" data-name="路径 2606" d="M14,2H6A2,2,0,0,0,4.01,4L4,20a2,2,0,0,0,1.99,2H18a2.006,2.006,0,0,0,2-2V8ZM6,4h7l5,5v8.58l-1.84-1.84a5.027,5.027,0,1,0-1.41,1.4L17.6,20H6Zm8.11,11.1a2.974,2.974,0,0,1-2.11.88,2.933,2.933,0,0,1-2.11-.88,2.974,2.974,0,0,1-.88-2.11,2.984,2.984,0,0,1,5.1-2.11,2.974,2.974,0,0,1,.88,2.11A2.933,2.933,0,0,1,14.11,15.1Z"/>
</svg>
