<svg xmlns="http://www.w3.org/2000/svg" width="24" height="24" viewBox="0 0 24 24">
  <defs>
    <style>
      .cls-1 {
        fill: none;
      }
    </style>
  </defs>
  <g id="smart_terminal" transform="translate(-59 -1750)">
    <path id="路径_2588" data-name="路径 2588" class="cls-1" d="M0,0H24V24H0Z" transform="translate(59 1750)"/>
    <path id="路径_2701" data-name="路径 2701" d="M-15431.951-22223v-1.9h1.725v-1.9h-6.045a1.822,1.822,0,0,1-1.727-1.9v-11.4a1.822,1.822,0,0,1,1.727-1.9h15.547a1.822,1.822,0,0,1,1.727,1.9v11.4a1.822,1.822,0,0,1-1.727,1.9h-6.045v1.9h1.727v1.9Zm-4.32-5.7h15.547v-11.4h-15.547Zm10.148-1.9v-7.068h1.547v7.068Zm-2.551,0-.371-1.629h-1.9l-.373,1.629h-1.572l2-7.068h1.846l2,7.068Zm-1.838-3.539-.139.6h1.316l-.141-.6c-.174-.7-.338-1.547-.51-2.268h-.035C-15430.174-22235.662-15430.348-22234.836-15430.512-22234.137Z" transform="translate(15500 23995)"/>
  </g>
</svg>
