<svg id="spc" xmlns="http://www.w3.org/2000/svg" width="24" height="24" viewBox="0 0 24 24">
  <defs>
    <style>
      .cls-1 {
        fill: none;
      }
    </style>
  </defs>
  <path id="路径_2500" data-name="路径 2500" class="cls-1" d="M0,0H24V24H0Z"/>
  <path id="路径_2957" data-name="路径 2957" d="M-20372-23340.689h-4.691v-4.691l-3.312-3.311,3.313-3.307v-4.691h4.691l3.307-3.312,3.313,3.313h4.689v4.691l3.313,3.307-3.312,3.311v4.691h-4.689l-3.312,3.313Zm-2.691-10.482-2.48,2.48,2.48,2.484v3.518h3.518l2.48,2.48,2.484-2.48h3.518v-3.518l2.48-2.484-2.48-2.48v-3.518h-3.518l-2.484-2.48-2.48,2.48h-3.518Zm9.258,8.277-.887-1.148a5.02,5.02,0,0,1-2.461.6,5,5,0,0,1-3.764-1.559,5.188,5.188,0,0,1-1.5-3.723,5.233,5.233,0,0,1,.7-2.65,5.193,5.193,0,0,1,1.918-1.918,5.115,5.115,0,0,1,2.621-.709,5.022,5.022,0,0,1,3.682,1.543,5.161,5.161,0,0,1,1.535,3.77,5.132,5.132,0,0,1-1.33,3.529l1.752,2.262Zm-5.729-8.26a3.386,3.386,0,0,0-.955,2.469,3.214,3.214,0,0,0,1.2,2.637,3.309,3.309,0,0,0,2.129.758,3.193,3.193,0,0,0,1.289-.266l-1.8-2.314h2.281l.908,1.166a3.5,3.5,0,0,0,.6-2,3.363,3.363,0,0,0-.961-2.422,3.13,3.13,0,0,0-2.338-1A3.175,3.175,0,0,0-20371.16-23351.154Z" transform="translate(20380.689 23360.689)"/>
</svg>
