<svg xmlns="http://www.w3.org/2000/svg" width="24" height="24" viewBox="0 0 24 24">
  <defs>
    <style>
      .cls-1, .cls-3 {
        fill: none;
      }

      .cls-1 {
        stroke: #707070;
        opacity: 0;
      }

      .cls-2 {
        stroke: none;
      }
    </style>
  </defs>
  <g id="spc_report" transform="translate(-90 -2105)">
    <path id="路径_2704" data-name="路径 2704" d="M-15437-22223a2.867,2.867,0,0,1-.4-.029,1.967,1.967,0,0,1-1.011-.553,2.1,2.1,0,0,1-.43-.641,2.039,2.039,0,0,1-.162-.777v-14a1.912,1.912,0,0,1,.162-.77,2.084,2.084,0,0,1,.43-.643,2,2,0,0,1,1.011-.547,1.553,1.553,0,0,1,.4-.039h4.181a3.014,3.014,0,0,1,2.819-2,3.019,3.019,0,0,1,2.824,2h4.176a2.008,2.008,0,0,1,2,2v14a2.01,2.01,0,0,1-2,2Zm0-2h14v-3.594a2.467,2.467,0,0,1-1.78.7,2.758,2.758,0,0,1-2.791-3.055,2.865,2.865,0,0,1,2.835-3.119,2.536,2.536,0,0,1,1.736.705V-22239h-14Zm14-3.961v-4.24l-.676.822a1.492,1.492,0,0,0-1.032-.463c-.771,0-1.4.691-1.4,1.848,0,1.184.542,1.875,1.385,1.875a1.538,1.538,0,0,0,1.133-.547Zm-7.748-11.541a.756.756,0,0,0,.748.754.758.758,0,0,0,.754-.754.758.758,0,0,0-.754-.748A.756.756,0,0,0-15430.75-22240.5Zm-5.939,11.758.81-.984a2.39,2.39,0,0,0,1.445.609c.53,0,.776-.2.776-.52,0-.346-.324-.457-.838-.676l-.759-.318a1.747,1.747,0,0,1-1.211-1.629,1.961,1.961,0,0,1,2.16-1.8,2.741,2.741,0,0,1,1.937.787l-.709.893a1.962,1.962,0,0,0-1.228-.457c-.441,0-.709.178-.709.5s.374.457.9.664l.742.3a1.645,1.645,0,0,1,1.178,1.635c0,.988-.831,1.859-2.271,1.859A3.341,3.341,0,0,1-15436.689-22228.744Zm4.689.742v-5.951h2.087c1.313,0,2.4.463,2.4,1.938,0,1.418-1.1,2.037-2.356,2.037h-.691v1.977Zm1.435-3.1h.619c.7,0,1.033-.328,1.033-.914s-.386-.811-1.072-.811h-.58Z" transform="translate(15532 24349)"/>
    <g id="矩形_1182" data-name="矩形 1182" class="cls-1" transform="translate(90 2105)">
      <rect class="cls-2" width="24" height="24"/>
      <rect class="cls-3" x="0.5" y="0.5" width="23" height="23"/>
    </g>
  </g>
</svg>
