<svg id="stage" xmlns="http://www.w3.org/2000/svg" width="24" height="24" viewBox="0 0 24 24">
  <defs>
    <style>
      .cls-1 {
        fill: none;
      }
    </style>
  </defs>
  <path id="路径_2769" data-name="路径 2769" class="cls-1" d="M0,0H24V24H0Z"/>
  <path id="路径_2770" data-name="路径 2770" d="M13,7.5h5v2H13Zm0,7h5v2H13ZM19,3H5A2.006,2.006,0,0,0,3,5V19a2.006,2.006,0,0,0,2,2H19a2.006,2.006,0,0,0,2-2V5A2.006,2.006,0,0,0,19,3Zm0,16H5V5H19ZM11,6H6v5h5Zm-1,4H7V7h3Zm1,3H6v5h5Zm-1,4H7V14h3Z"/>
</svg>
