<svg id="system_param" xmlns="http://www.w3.org/2000/svg" width="24" height="24" viewBox="0 0 24 24">
  <defs>
    <style>
      .cls-1 {
        fill: none;
      }
    </style>
  </defs>
  <path id="路径_2684" data-name="路径 2684" class="cls-1" d="M0,0H24V24H0Z"/>
  <path id="路径_2685" data-name="路径 2685" d="M17.99,11.57H20V0L0,20H11.56V18H4.83L17.99,4.83Zm5.78,8.75-1.07-.83a3.886,3.886,0,0,0,.04-.49,2.628,2.628,0,0,0-.04-.49l1.06-.83a.26.26,0,0,0,.06-.32l-1-1.73a.254.254,0,0,0-.31-.11l-1.24.5a3.421,3.421,0,0,0-.85-.49l-.19-1.32a.239.239,0,0,0-.24-.21h-2a.257.257,0,0,0-.25.21l-.19,1.32a4,4,0,0,0-.85.49l-1.24-.5a.262.262,0,0,0-.31.11l-1,1.73a.248.248,0,0,0,.06.32l1.06.83a4.017,4.017,0,0,0,0,.98l-1.06.83a.26.26,0,0,0-.06.32l1,1.73a.254.254,0,0,0,.31.11l1.24-.5a3.421,3.421,0,0,0,.85.49l.19,1.32a.249.249,0,0,0,.25.21h2a.257.257,0,0,0,.25-.21l.19-1.32a3.7,3.7,0,0,0,.84-.49l1.25.5a.262.262,0,0,0,.31-.11l1-1.73A.26.26,0,0,0,23.77,20.32Zm-4.78.18a1.5,1.5,0,1,1,1.5-1.5A1.5,1.5,0,0,1,18.99,20.5Z"/>
</svg>
