<svg id="unitassembly" xmlns="http://www.w3.org/2000/svg" width="24" height="24" viewBox="0 0 24 24">
  <defs>
    <style>
      .cls-1 {
        fill: none;
      }
    </style>
  </defs>
  <path id="路径_2674" data-name="路径 2674" class="cls-1" d="M0,0H24V24H0Z"/>
  <path id="路径_2675" data-name="路径 2675" d="M10.5,4.5A.5.5,0,0,1,11,5V7h6v6h2a.5.5,0,0,1,0,1H17v6H14.88a4.7,4.7,0,0,0-8.76,0H4V17.88a4.7,4.7,0,0,0,.01-8.76L4,7h6V5a.5.5,0,0,1,.5-.5m0-2A2.5,2.5,0,0,0,8,5H4A2,2,0,0,0,2.01,7v3.8H2.3a2.7,2.7,0,0,1,0,5.4H2V20a2.006,2.006,0,0,0,2,2H7.8v-.3a2.7,2.7,0,1,1,5.4,0V22H17a2.006,2.006,0,0,0,2-2V16a2.5,2.5,0,0,0,0-5V7a2.006,2.006,0,0,0-2-2H13A2.5,2.5,0,0,0,10.5,2.5Z" transform="translate(1 -1)"/>
</svg>
