<svg xmlns="http://www.w3.org/2000/svg" width="24" height="24" viewBox="0 0 24 24">
  <defs>
    <style>
      .cls-1 {
        fill: none;
      }
    </style>
  </defs>
  <g id="vendor" transform="translate(204 -779)">
    <path id="路径_2565" data-name="路径 2565" class="cls-1" d="M0,0H24V24H0Z" transform="translate(-204 779)"/>
    <path id="路径_2697" data-name="路径 2697" d="M-15733-22640.2v-3c0-2.627,5.209-4,8-4s8,1.371,8,4v3Zm1.9-3v1.1h12.2v-1.1c0-.643-3.128-2.1-6.1-2.1S-15731.1-22643.834-15731.1-22643.191Zm2.133-8.5h1.934a2.089,2.089,0,0,0,2.036,1.6,2.093,2.093,0,0,0,2.035-1.6h1.928a4,4,0,0,1-3.963,3.5A4.006,4.006,0,0,1-15728.966-22651.687Zm-2.03-.006v-2h12v2Zm8-2v-1.8c0-1.5-2-1.707-2-1.707s-2,.211-2,1.707v1.8h-2v-1.8a3.645,3.645,0,0,1,4-3.51c1.77.045,4,1.023,4,3.51v1.8Zm-4,0h0Zm-2,0Z" transform="translate(15532.998 23440.191)"/>
  </g>
</svg>
