<svg xmlns="http://www.w3.org/2000/svg" width="24" height="24" viewBox="0 0 24 24">
  <defs>
    <style>
      .cls-1 {
        fill: none;
      }
    </style>
  </defs>
  <g id="workorder_status" transform="translate(-88 -1562)">
    <path id="路径_2646" data-name="路径 2646" class="cls-1" d="M0,0H24V24H0Z" transform="translate(88 1562)"/>
    <path id="路径_2699" data-name="路径 2699" d="M-15434-22223a3.009,3.009,0,0,1-.4-.029,1.982,1.982,0,0,1-1.011-.553,2.1,2.1,0,0,1-.43-.641,2.034,2.034,0,0,1-.156-.777v-14a1.91,1.91,0,0,1,.156-.77,2.084,2.084,0,0,1,.43-.643,2.017,2.017,0,0,1,1.011-.547,1.619,1.619,0,0,1,.4-.039h4.182a3.006,3.006,0,0,1,2.818-2,3.008,3.008,0,0,1,2.819,2h4.181a2,2,0,0,1,2,2v14a2,2,0,0,1-2,2Zm0-2h14v-14h-14Zm6.247-15.5a.757.757,0,0,0,.753.754.756.756,0,0,0,.748-.754.756.756,0,0,0-.748-.748A.757.757,0,0,0-15427.752-22240.5Zm-5.259,9.514,1.424-1.414,2.578,2.574,6.588-6.592,1.412,1.422-8,8Z" transform="translate(15527 23806)"/>
  </g>
</svg>
