<svg xmlns="http://www.w3.org/2000/svg" width="24" height="24" viewBox="0 0 24 24">
  <defs>
    <style>
      .cls-1 {
        fill: none;
        opacity: 0;
      }

      .cls-2, .cls-3 {
        stroke: none;
      }

      .cls-3 {
        fill: #707070;
      }
    </style>
  </defs>
  <g id="workorder_bom" transform="translate(-59 -1667)">
    <path id="路径_2700" data-name="路径 2700" d="M-15437-22223a2.867,2.867,0,0,1-.4-.029,1.967,1.967,0,0,1-1.011-.553,2.1,2.1,0,0,1-.43-.641,2.039,2.039,0,0,1-.162-.777v-14a1.912,1.912,0,0,1,.162-.77,2.084,2.084,0,0,1,.43-.643,2,2,0,0,1,1.011-.547,1.553,1.553,0,0,1,.4-.039h4.181a3.014,3.014,0,0,1,2.819-2,3.019,3.019,0,0,1,2.824,2h4.176a2.008,2.008,0,0,1,2,2v14a2.01,2.01,0,0,1-2,2Zm0-2h14v-14h-14Zm6.252-15.5a.756.756,0,0,0,.748.754.758.758,0,0,0,.754-.754.758.758,0,0,0-.754-.748A.756.756,0,0,0-15430.75-22240.5Zm-2.16,13.5v-8.881h2.941c1.826,0,3.216.529,3.216,2.182a2.011,2.011,0,0,1-1.212,1.922v.061a2.019,2.019,0,0,1,1.67,2.1c0,1.785-1.491,2.617-3.444,2.617Zm1.78-1.367h1.234c1.211,0,1.87-.436,1.87-1.357,0-.865-.648-1.223-1.87-1.223h-1.234Zm0-3.9h1.033c1.128,0,1.619-.457,1.619-1.166,0-.777-.531-1.09-1.6-1.09h-1.056Z" transform="translate(15501 23911)"/>
    <g id="路径_2959" data-name="路径 2959" class="cls-1" transform="translate(59 1667)">
      <path class="cls-2" d="M0,0H24V24H0Z"/>
      <path class="cls-3" d="M 1 1 L 1 23 L 23 23 L 23 1 L 1 1 M 0 0 L 24 0 L 24 24 L 0 24 L 0 0 Z"/>
    </g>
  </g>
</svg>
