<svg xmlns="http://www.w3.org/2000/svg" width="24" height="24" viewBox="0 0 24 24">
  <defs>
    <style>
      .cls-1 {
        fill: none;
      }
    </style>
  </defs>
  <g id="baseline-settings-20px" transform="translate(2)">
    <path id="路径_2946" data-name="路径 2946" class="cls-1" d="M0,0H24V24H0Z" transform="translate(-2)"/>
    <path id="路径_2947" data-name="路径 2947" d="M15.95,10.78A6.527,6.527,0,0,0,16,10a4.932,4.932,0,0,0-.06-.78L17.63,7.9a.413.413,0,0,0,.1-.51l-1.6-2.77a.407.407,0,0,0-.49-.18l-1.99.8a5.859,5.859,0,0,0-1.35-.78L12,2.34A.4.4,0,0,0,11.6,2H8.4a.389.389,0,0,0-.39.34l-.3,2.12a6.015,6.015,0,0,0-1.35.78l-1.99-.8a.4.4,0,0,0-.49.18L2.28,7.39a.388.388,0,0,0,.1.51L4.07,9.22a4.713,4.713,0,0,0-.01,1.56L2.37,12.1a.413.413,0,0,0-.1.51l1.6,2.77a.407.407,0,0,0,.49.18l1.99-.8a5.859,5.859,0,0,0,1.35.78L8,17.66a.407.407,0,0,0,.4.34h3.2a.382.382,0,0,0,.39-.34l.3-2.12a6.015,6.015,0,0,0,1.35-.78l1.99.8a.4.4,0,0,0,.49-.18l1.6-2.77a.388.388,0,0,0-.1-.51l-1.67-1.32ZM10,13a3,3,0,1,1,3-3A3.009,3.009,0,0,1,10,13Z" transform="translate(0 2)"/>
  </g>
</svg>
