<svg xmlns="http://www.w3.org/2000/svg" width="24" height="24" viewBox="0 0 24 24">
  <defs>
    <style>
      .cls-1 {
        fill: none;
        opacity: 0;
      }

      .cls-2, .cls-3 {
        stroke: none;
      }

      .cls-3 {
        fill: #707070;
      }
    </style>
  </defs>
  <g id="组_2421" data-name="组 2421" transform="translate(-44 -196)">
    <g id="路径_2990" data-name="路径 2990" class="cls-1" transform="translate(44 196)">
      <path class="cls-2" d="M0,0H24V24H0Z"/>
      <path class="cls-3" d="M 1 1 L 1 23 L 23 23 L 23 1 L 1 1 M 0 0 L 24 0 L 24 24 L 0 24 L 0 0 Z"/>
    </g>
    <path id="script-text-outline" d="M15,20a1,1,0,0,0,1-1V4H8A1,1,0,0,0,7,5V16H5V5A3,3,0,0,1,8,2H19a3,3,0,0,1,3,3V6H20V5a1,1,0,0,0-2,0V19a3,3,0,0,1-3,3H5a3,3,0,0,1-3-3V18H13a2.006,2.006,0,0,0,2,2M9,6h5V8H9V6m0,4h5v2H9V10m0,4h5v2H9Z" transform="translate(44 196)"/>
  </g>
</svg>
