<svg xmlns="http://www.w3.org/2000/svg" width="24" height="24" viewBox="0 0 24 24">
  <defs>
    <style>
      .cls-1 {
        fill: none;
        opacity: 0;
      }

      .cls-2, .cls-3 {
        stroke: none;
      }

      .cls-3 {
        fill: #707070;
      }
    </style>
  </defs>
  <g id="组_2422" data-name="组 2422" transform="translate(-44 -196)">
    <g id="路径_2990" data-name="路径 2990" class="cls-1" transform="translate(44 196)">
      <path class="cls-2" d="M0,0H24V24H0Z"/>
      <path class="cls-3" d="M 1 1 L 1 23 L 23 23 L 23 1 L 1 1 M 0 0 L 24 0 L 24 24 L 0 24 L 0 0 Z"/>
    </g>
    <path id="arrow-down-bold-box-outline" d="M12,17,7,12h3V8h4v4h3l-5,5M5,3H19a2.006,2.006,0,0,1,2,2V19a2.006,2.006,0,0,1-2,2H5a2.006,2.006,0,0,1-2-2V5A2.006,2.006,0,0,1,5,3M5,5V19H19V5Z" transform="translate(44 196)"/>
  </g>
</svg>
