<svg id="outline-list_alt-24px" xmlns="http://www.w3.org/2000/svg" width="24" height="24" viewBox="0 0 24 24">
  <defs>
    <style>
      .cls-1 {
        fill: none;
      }
    </style>
  </defs>
  <path id="路径_2880" data-name="路径 2880" class="cls-1" d="M0,0H24V24H0Z"/>
  <path id="路径_2881" data-name="路径 2881" d="M11,7h6V9H11Zm0,4h6v2H11Zm0,4h6v2H11ZM7,7H9V9H7Zm0,4H9v2H7Zm0,4H9v2H7ZM20.1,3H3.9a.9.9,0,0,0-.9.9V20.1a.967.967,0,0,0,.9.9H20.1a1.061,1.061,0,0,0,.9-.9V3.9A.967.967,0,0,0,20.1,3ZM19,19H5V5H19Z"/>
</svg>
