<svg id="组_2323" data-name="组 2323" xmlns="http://www.w3.org/2000/svg" width="115.115" height="167.594" viewBox="0 0 115.115 167.594">
  <defs>
    <style>
      .cls-1, .cls-2 {
        fill: #00abc4;
      }

      .cls-2 {
        stroke: rgba(0,0,0,0);
      }
    </style>
  </defs>
  <g id="组_3" data-name="组 3" transform="translate(0 0)">
    <rect id="矩形_3" data-name="矩形 3" class="cls-1" width="23.453" height="81.813" rx="4" transform="translate(57.85 0) rotate(45)"/>
    <rect id="矩形_4" data-name="矩形 4" class="cls-1" width="23.453" height="45.27" rx="4" transform="translate(78.09 21.212) rotate(45)"/>
    <rect id="矩形_5" data-name="矩形 5" class="cls-1" width="23.453" height="81.813" rx="4" transform="translate(98.531 42.223) rotate(45)"/>
  </g>
  <path id="减去_16" data-name="减去 16" class="cls-2" d="M92.779,27.223a12.321,12.321,0,0,1-2.3-.2,13.17,13.17,0,0,1-1.875-.49,8.2,8.2,0,0,1-1.358-.6,3.913,3.913,0,0,1-.785-.554,1.386,1.386,0,0,1-.342-.692,6.338,6.338,0,0,1-.1-1.3c0-.391.012-.705.037-.961a2.755,2.755,0,0,1,.12-.628.692.692,0,0,1,.222-.342.536.536,0,0,1,.323-.1,1.54,1.54,0,0,1,.729.3,13.066,13.066,0,0,0,1.21.674A11.01,11.01,0,0,0,90.424,23a8.372,8.372,0,0,0,2.373.305,5.5,5.5,0,0,0,1.589-.213,3.567,3.567,0,0,0,1.191-.6,2.556,2.556,0,0,0,.748-.96,3.086,3.086,0,0,0,.258-1.275,2.241,2.241,0,0,0-.443-1.394,4.422,4.422,0,0,0-1.154-1.034,12.018,12.018,0,0,0-1.617-.849c-.6-.261-1.223-.544-1.865-.841a17.033,17.033,0,0,1-1.866-1.007,7.594,7.594,0,0,1-1.617-1.348,6.387,6.387,0,0,1-1.154-1.856,6.734,6.734,0,0,1-.443-2.567,6.816,6.816,0,0,1,.637-3.02A6.219,6.219,0,0,1,88.78,4.181,7.344,7.344,0,0,1,91.329,2.9a11.187,11.187,0,0,1,3.112-.425,11.342,11.342,0,0,1,1.7.129,11.617,11.617,0,0,1,1.589.351,9,9,0,0,1,1.311.5,3.1,3.1,0,0,1,.757.462,1.339,1.339,0,0,1,.25.314,1.479,1.479,0,0,1,.111.342,3.561,3.561,0,0,1,.065.536c.012.213.019.483.019.8,0,.346-.009.651-.028.905a3.42,3.42,0,0,1-.092.609.729.729,0,0,1-.184.351.462.462,0,0,1-.323.111,1.544,1.544,0,0,1-.646-.259c-.3-.175-.667-.364-1.09-.563a10.4,10.4,0,0,0-1.5-.554,6.663,6.663,0,0,0-1.866-.249,4.473,4.473,0,0,0-1.385.194,2.871,2.871,0,0,0-.988.536,2.118,2.118,0,0,0-.591.822,2.7,2.7,0,0,0-.194,1.016A2.247,2.247,0,0,0,91.79,10.2a4.2,4.2,0,0,0,1.164,1.034,12.572,12.572,0,0,0,1.653.849c.627.27,1.261.553,1.884.84a18.808,18.808,0,0,1,1.884,1.007,7.6,7.6,0,0,1,1.644,1.349,6.3,6.3,0,0,1,1.164,1.847,6.5,6.5,0,0,1,.443,2.5,7.415,7.415,0,0,1-.7,3.306,6.884,6.884,0,0,1-1.9,2.373,8.326,8.326,0,0,1-2.807,1.432A11.98,11.98,0,0,1,92.779,27.223ZM82.067,26.8H70.061a1.518,1.518,0,0,1-1.025-.36,1.483,1.483,0,0,1-.415-1.173V4.43a1.483,1.483,0,0,1,.415-1.173,1.515,1.515,0,0,1,1.025-.36H81.993a.517.517,0,0,1,.2.038V6.661a.464.464,0,0,1-.2.041H73.459v5.837h7.222a.5.5,0,0,1,.248.065v3.589a.539.539,0,0,1-.248.059H73.459v6.741h8.607a.506.506,0,0,1,.123.015v3.775A.506.506,0,0,1,82.067,26.8Zm-19.411-.945h-4.6V6.684h-.037L51.187,25.852H46.035l-6.6-19.168H39.4V25.852H34.8V4.837A1.96,1.96,0,0,1,35.3,3.4a1.807,1.807,0,0,1,1.33-.5h3.177a6.686,6.686,0,0,1,1.459.138A2.842,2.842,0,0,1,42.32,3.5a2.621,2.621,0,0,1,.739.85,6.117,6.117,0,0,1,.517,1.3l5.172,14.24h.074l5.356-14.2A7.524,7.524,0,0,1,54.7,4.375a3.047,3.047,0,0,1,.665-.868,2.2,2.2,0,0,1,.9-.471,4.675,4.675,0,0,1,1.2-.138h3.269a2.554,2.554,0,0,1,.859.129,1.474,1.474,0,0,1,.591.379,1.658,1.658,0,0,1,.351.609,2.6,2.6,0,0,1,.12.822V25.852Zm-57.779,0H0V3.562A.517.517,0,0,1,.12,3.23a.855.855,0,0,1,.406-.24,4.155,4.155,0,0,1,.748-.148,10.126,10.126,0,0,1,1.164-.056,10.311,10.311,0,0,1,1.182.056,3.927,3.927,0,0,1,.739.148.852.852,0,0,1,.4.24.517.517,0,0,1,.12.332ZM29.5,19.428H21.819a.689.689,0,0,1-.664-.434,3.852,3.852,0,0,1-.2-1.487,3.708,3.708,0,0,1,.2-1.459.69.69,0,0,1,.664-.425H29.5a.735.735,0,0,1,.378.092.726.726,0,0,1,.268.314,1.847,1.847,0,0,1,.157.591,7.32,7.32,0,0,1,.046.886,3.851,3.851,0,0,1-.2,1.5A.677.677,0,0,1,29.5,19.428ZM18.095,14.189H10.079a1.748,1.748,0,0,1-.41-.043.532.532,0,0,1-.28-.167.784.784,0,0,1-.157-.361A3.194,3.194,0,0,1,9.185,13a4.914,4.914,0,0,1,.032-.609,1.654,1.654,0,0,1,.119-.452,2.12,2.12,0,0,1,.221-.388,3.954,3.954,0,0,1,.35-.415L12.32,8.554A12.833,12.833,0,0,0,13.484,7.18a8.016,8.016,0,0,0,.689-1.131,4.215,4.215,0,0,0,.339-.943,3.968,3.968,0,0,0,.092-.819,2,2,0,0,0-.113-.674,1.6,1.6,0,0,0-.334-.555,1.539,1.539,0,0,0-.555-.372,2.113,2.113,0,0,0-.786-.134,3.6,3.6,0,0,0-1.126.162,5.476,5.476,0,0,0-.862.361,7.2,7.2,0,0,0-.62.367.8.8,0,0,1-.388.167.238.238,0,0,1-.167-.065.472.472,0,0,1-.113-.216,2.557,2.557,0,0,1-.07-.4,5.855,5.855,0,0,1-.027-.62c0-.169.005-.305.016-.415A1.907,1.907,0,0,1,9.508,1.6a.851.851,0,0,1,.086-.216,1.127,1.127,0,0,1,.189-.221,2.567,2.567,0,0,1,.5-.329,6.116,6.116,0,0,1,.889-.388A8.464,8.464,0,0,1,12.331.129,6.672,6.672,0,0,1,13.656,0a5.979,5.979,0,0,1,1.9.275,3.8,3.8,0,0,1,1.352.765,3.085,3.085,0,0,1,.8,1.164,3.959,3.959,0,0,1,.264,1.449,6.939,6.939,0,0,1-.129,1.336A5.126,5.126,0,0,1,17.309,6.4a11.319,11.319,0,0,1-1.153,1.681,27.056,27.056,0,0,1-1.972,2.139l-1.627,1.67h5.495a.341.341,0,0,1,.2.065.5.5,0,0,1,.156.2,1.27,1.27,0,0,1,.1.355,3.674,3.674,0,0,1,.032.523,4.62,4.62,0,0,1-.027.533,1.532,1.532,0,0,1-.081.361.407.407,0,0,1-.14.2A.333.333,0,0,1,18.095,14.189Z" transform="translate(6.93 139.872)"/>
</svg>
