<svg id="outline-format_list_bulleted-24px" xmlns="http://www.w3.org/2000/svg" width="24" height="24" viewBox="0 0 24 24">
  <defs>
    <style>
      .cls-1 {
        fill: none;
      }
    </style>
  </defs>
  <path id="路径_2851" data-name="路径 2851" class="cls-1" d="M0,0H24V24H0Z"/>
  <path id="路径_2852" data-name="路径 2852" d="M4,10.5A1.5,1.5,0,1,0,5.5,12,1.5,1.5,0,0,0,4,10.5Zm0-6A1.5,1.5,0,1,0,5.5,6,1.5,1.5,0,0,0,4,4.5Zm0,12A1.5,1.5,0,1,0,5.5,18,1.5,1.5,0,0,0,4,16.5ZM7,19H21V17H7Zm0-6H21V11H7ZM7,5V7H21V5Z"/>
</svg>
