<svg id="baseline-autorenew-24px" xmlns="http://www.w3.org/2000/svg" width="24" height="24" viewBox="0 0 24 24">
  <defs>
    <style>
      .cls-1 {
        fill: none;
      }
    </style>
  </defs>
  <path id="路径_2723" data-name="路径 2723" d="M12,6V9l4-4L12,1V4A7.986,7.986,0,0,0,5.24,16.26L6.7,14.8A5.87,5.87,0,0,1,6,12,6,6,0,0,1,12,6Zm6.76,1.74L17.3,9.2A5.99,5.99,0,0,1,12,18V15L8,19l4,4V20A7.986,7.986,0,0,0,18.76,7.74Z"/>
  <path id="路径_2724" data-name="路径 2724" class="cls-1" d="M0,0H24V24H0Z"/>
</svg>
