<svg xmlns="http://www.w3.org/2000/svg" width="24" height="24" viewBox="0 0 24 24">
  <defs>
    <style>
      .cls-1 {
        fill: none;
        opacity: 0;
      }

      .cls-2, .cls-3 {
        stroke: none;
      }

      .cls-3 {
        fill: #707070;
      }
    </style>
  </defs>
  <g id="组_2420" data-name="组 2420" transform="translate(-44 -196)">
    <g id="路径_2990" data-name="路径 2990" class="cls-1" transform="translate(44 196)">
      <path class="cls-2" d="M0,0H24V24H0Z"/>
      <path class="cls-3" d="M 1 1 L 1 23 L 23 23 L 23 1 L 1 1 M 0 0 L 24 0 L 24 24 L 0 24 L 0 0 Z"/>
    </g>
    <path id="close-outline" d="M3,16.74,7.76,12,3,7.26,7.26,3,12,7.76,16.74,3,21,7.26,16.24,12,21,16.74,16.74,21,12,16.24,7.26,21,3,16.74m9-3.33,4.74,4.75,1.42-1.42L13.41,12l4.75-4.74L16.74,5.84,12,10.59,7.26,5.84,5.84,7.26,10.59,12,5.84,16.74l1.42,1.42Z" transform="translate(44 196)"/>
  </g>
</svg>
