<svg xmlns="http://www.w3.org/2000/svg" width="24" height="24" viewBox="0 0 24 24">
  <defs>
    <style>
      .cls-1 {
        fill: none;
        opacity: 0;
      }

      .cls-2, .cls-3 {
        stroke: none;
      }

      .cls-3 {
        fill: #707070;
      }
    </style>
  </defs>
  <g id="组_2428" data-name="组 2428" transform="translate(-44 -196)">
    <g id="路径_2990" data-name="路径 2990" class="cls-1" transform="translate(44 196)">
      <path class="cls-2" d="M0,0H24V24H0Z"/>
      <path class="cls-3" d="M 1 1 L 1 23 L 23 23 L 23 1 L 1 1 M 0 0 L 24 0 L 24 24 L 0 24 L 0 0 Z"/>
    </g>
    <path id="undo-variant" d="M13.5,7a6.5,6.5,0,0,1,0,13H10V18h3.5a4.5,4.5,0,0,0,0-9H7.83l3.08,3.09L9.5,13.5,4,8,9.5,2.5l1.42,1.41L7.83,7H13.5M6,18H8v2H6Z" transform="translate(44 195.5)"/>
  </g>
</svg>
