<svg id="outline-delete_forever-24px" xmlns="http://www.w3.org/2000/svg" width="30" height="30" viewBox="0 0 30 30">
  <defs>
    <style>
      .cls-1 {
        fill: none;
      }
    </style>
  </defs>
  <path id="路径_2803" data-name="路径 2803" class="cls-1" d="M0,0H30V30H0Z"/>
  <path id="路径_2804" data-name="路径 2804" d="M18.029,12.96,15,15.787,11.957,12.96,9.943,14.84l3.043,2.827L9.957,20.493l2.014,1.88L15,19.547l3.029,2.827,2.014-1.88-3.029-2.827,3.029-2.827ZM20,4.333,18.571,3H11.429L10,4.333H5V7H25V4.333Zm-13.571,20A2.775,2.775,0,0,0,9.286,27H20.714a2.775,2.775,0,0,0,2.857-2.667v-16H6.429ZM9.286,11H20.714V24.333H9.286Z" transform="translate(0)"/>
</svg>
