<svg id="outline-brightness_5-24px" xmlns="http://www.w3.org/2000/svg" width="24" height="24" viewBox="0 0 24 24">
  <defs>
    <style>
      .cls-1 {
        fill: none;
      }
    </style>
  </defs>
  <path id="路径_2773" data-name="路径 2773" class="cls-1" d="M0,0H24V24H0Z"/>
  <path id="路径_2774" data-name="路径 2774" d="M20,8.69V4H15.31L12,.69,8.69,4H4V8.69L.69,12,4,15.31V20H8.69L12,23.31,15.31,20H20V15.31L23.31,12Zm-2,5.79V18H14.48L12,20.48,9.52,18H6V14.48L3.52,12,6,9.52V6H9.52L12,3.52,14.48,6H18V9.52L20.48,12ZM12,6.5A5.5,5.5,0,1,0,17.5,12,5.51,5.51,0,0,0,12,6.5Zm0,9A3.5,3.5,0,1,1,15.5,12,3.5,3.5,0,0,1,12,15.5Z"/>
</svg>
