<svg id="outline-alarm-24px" xmlns="http://www.w3.org/2000/svg" width="24" height="24" viewBox="0 0 24 24">
  <defs>
    <style>
      .cls-1 {
        fill: none;
      }
    </style>
  </defs>
  <path id="路径_2755" data-name="路径 2755" class="cls-1" d="M0,0H24V24H0Z"/>
  <path id="路径_2756" data-name="路径 2756" d="M12,7.19V13.2h6.146a6.279,6.279,0,0,0-1.869-4.4A6.568,6.568,0,0,0,12,7.19Zm5.337-5.38,4.607,3.845L20.664,7.19l-4.61-3.843Zm-10.674,0L7.945,3.346,3.337,7.19,2.057,5.654ZM12,4a9,9,0,1,0,9,9A9,9,0,0,0,12,4Zm0,16a7,7,0,1,1,7-7A7.008,7.008,0,0,1,12,20Z"/>
</svg>
