<svg id="outline-cloud_upload-24px" xmlns="http://www.w3.org/2000/svg" width="24" height="24" viewBox="0 0 24 24">
  <defs>
    <style>
      .cls-1 {
        fill: none;
      }
    </style>
  </defs>
  <path id="路径_2793" data-name="路径 2793" class="cls-1" d="M0,0H24V24H0Z"/>
  <path id="路径_2794" data-name="路径 2794" d="M19.35,10.04a7.492,7.492,0,0,0-14-2A6,6,0,0,0,6,20H19a4.986,4.986,0,0,0,.35-9.96ZM19,18H6a4,4,0,0,1-.44-7.97l1.07-.11.5-.95a5.487,5.487,0,0,1,10.26,1.46l.3,1.5,1.53.11A2.983,2.983,0,0,1,19,18ZM8,13h2.55v3h2.9V13H16L12,9Z"/>
</svg>
